<svg xmlns="http://www.w3.org/2000/svg" viewBox="0 0 256 134" role="img" aria-label="PHP">
  <ellipse fill="#777BB3" cx="128" cy="67" rx="128" ry="67"/>
  <path fill="#fff" d="M52 39h26c8 0 14 2 17 7 3 4 4 9 2 16-1 5-3 9-5 12-2 3-5 5-8 7-3 1-7 2-12 2H59l-5 24H35L52 39Zm12 14-5 25h9c5 0 9-1 12-3 2-2 4-5 5-9 1-4 0-7-1-9-2-2-5-4-10-4h-10Z"/>
  <path fill="#fff" d="M114 25h19l-5 25h17c8 0 14 2 16 5 3 3 3 8 2 14l-8 38h-19l7-36c1-3 1-6 0-7-1-2-3-2-6-2h-15l-9 45H93l21-82Z"/>
  <path fill="#fff" d="M178 39h26c8 0 14 2 17 7 3 4 4 9 2 16-1 5-3 9-5 12-2 3-5 5-8 7-3 1-7 2-12 2h-13l-5 24h-19l17-68Zm12 14-5 25h9c5 0 9-1 12-3 2-2 4-5 5-9 1-4 0-7-1-9-2-2-5-4-10-4h-10Z"/>
</svg>
